<?xml version="1.0" encoding="UTF-8" standalone="no"?>
<svg version="1.1" width="16" height="16" xmlns="http://www.w3.org/2000/svg" xmlns:svg="http://www.w3.org/2000/svg">
   <path d="m 7.6000001,10.52 q 0,0.4 0.36,0.4 0.36,0 0.36,-0.4 V 5.4799999 q 0,-0.4 -0.36,-0.4 -0.36,0 -0.36,0.4 z m 0.4,-5.4400001 q -0.08,0 -0.12,0.9200001 -0.04,0.92 0,1.9999999 0.04,1.0800001 0.08,2.0000001 l 0.04,0.92 L 15.6,8.28 q 0.4,-0.08 0.4,-0.3200001 0,-0.2399999 -0.4,-0.32 l -7.5199999,-2.56 z m -7.36000009,2.32 Q 0,7.3999999 0,7.9599999 0,8.5200001 0.64000001,8.5200001 H 7.76 q 0.6400001,0 0.6400001,-0.5600002 0,-0.56 -0.6400001,-0.56 z M 0,7.9599999 h 16 z" />
</svg>
