<?xml version="1.0" encoding="UTF-8" standalone="no"?>
<svg version="1.1" width="26" height="26" xmlns="http://www.w3.org/2000/svg" xmlns:svg="http://www.w3.org/2000/svg">
   <path d="m 17.472,16.172 q 0,0.416 -0.234,0.624 -0.234,0.208 -0.546,0.208 -0.312,0 -0.546,-0.208 -0.234,-0.208 -0.234,-0.624 V 0.832 q 0,-0.416 0.234,-0.624 Q 16.38,0 16.692,0 q 0.312,0 0.546,0.208 0.234,0.208 0.234,0.624 z m -7.384,8.996 q 0,0.416 -0.234,0.624 Q 9.62,26 9.308,26 8.996,26 8.762,25.792 8.528,25.584 8.528,25.168 V 9.828 q 0,-0.416 0.234,-0.624 0.234,-0.208 0.546,-0.208 0.312,0 0.546,0.208 0.234,0.208 0.234,0.624 z" />
</svg>
