<?xml version="1.0" encoding="UTF-8" standalone="no"?>
<svg version="1.1" width="18" height="18" xmlns="http://www.w3.org/2000/svg" xmlns:svg="http://www.w3.org/2000/svg">
   <path d="m 12.404819,17.306024 q 0,0.346987 0.19518,0.520482 Q 12.795181,18 13.055421,18 q 0.260241,0 0.455423,-0.173494 0.19518,-0.173495 0.19518,-0.520482 V 0.69397588 q 0,-0.34698794 -0.19518,-0.52048192 Q 13.315662,0 13.055421,0 12.795181,0 12.6,0.17349396 12.40482,0.34698794 12.40482,0.69397588 Z m -8.110843,0 q 0,0.346987 0.19518,0.520482 Q 4.6843374,18 4.9445784,18 5.2048192,18 5.4,17.826506 5.59518,17.653012 5.59518,17.306024 V 0.69397588 Q 5.59518,0.34698794 5.4,0.17349396 5.2048192,0 4.9445784,0 4.6843374,0 4.4891566,0.17349396 q -0.19518,0.17349398 -0.19518,0.52048192 z" />
</svg>
