<?xml version="1.0" encoding="UTF-8"?>
<svg width="100" height="100" viewBox="0 0 122 150" version="1.1"
    xmlns="http://www.w3.org/2000/svg">
    <path transform="scale(0.29, -0.29) translate(-50, -508)"
        d="M209 496l13 -77l-18 -6q-8 -3 -16.5 -6t-16.5 -7q-19 -13 -35 -27q-9 -8 -16 -16l-66 43q2 6 9 15q5 8 16 18.5t30 24.5q21 14 39 21.5t32 11.5q16 4 29 5zM428 437l-53 -60l-15 10q-7 5 -16 9t-19 9t-20.5 7.5t-19.5 4.5l-22 4l1 76q6 2 17 2q9 0 25 -2.5t41 -10.5 q23 -8 38 -16t25 -16q11 -9 18 -17zM507 258h-76q-1 6 -3 14q-2 7 -4 15.5t-6 19.5q-5 12 -10 20.5t-10 16.5t-11 16l59 57q6 -5 13 -14q6 -8 14 -21.5t17 -36.5q8 -20 11.5 -33.5t4.5 -21.5q1 -9 -1 -14zM418 72l-50 52q6 6 13 14q13 14 26 35q4 10 7.5 21.5t5.5 21.5 q3 11 4 22l81 -12q1 -9 -1 -20q-2 -10 -5.5 -25t-11.5 -36q-8 -19 -19.5 -32.5t-22.5 -22.5q-13 -11 -27 -18zM192 17l21 75q9 -2 20 -3q9 -1 19.5 -1.5t21.5 -0.5q10 2 21.5 5t21.5 7q12 4 24 9l38 -69q-5 -6 -16 -10q-19 -9 -66 -18q-23 -4 -42 -3.5t-33 2.5q-17 3 -30 7z M27 157l71 32q2 -6 6 -13q3 -6 8.5 -14t14.5 -16q6 -7 15 -14.5t17 -13.5q10 -7 21 -14l-37 -71q-9 1 -20 7q-10 5 -23 15.5t-30 28.5q-17 15 -25.5 28.5t-12.5 23.5q-4 11 -5 21zM33 360l71 -32q-3 -7 -6 -15q-2 -7 -5 -15t-5 -19q0 -10 0.5 -21.5t2.5 -22.5q1 -12 3 -25 l-83 -17q-3 8 -5 20q-2 11 -2.5 27t1.5 39q2 24 6.5 40t9.5 25q5 11 12 16z" />
</svg>