<?xml version="1.0" encoding="UTF-8"?>
<svg width="100" height="100" viewBox="0 0 122 150" version="1.1"
    xmlns="http://www.w3.org/2000/svg">
    <path transform="scale(0.29, -0.29) translate(-50, -508)"
        d="M244 397q-11 0 -23 -3q-11 -2 -23.5 -7t-26.5 -14q-14 -8 -23.5 -17t-16.5 -17q-8 -10 -13 -19l-72 40q10 13 22 27q11 11 24.5 25t30.5 25q18 11 40 18t40 10.5t29 5t7 1.5zM401 293q-4 13 -10 24q-5 11 -14 22t-23 21q-12 10 -24.5 16t-22.5 10q-11 4 -22 6l16 75 q16 -4 35 -11q15 -6 34 -16.5t37 -27.5q21 -18 33.5 -35.5t20.5 -31.5q9 -17 13 -32zM103 293q-3 -11 -5 -22q-2 -10 -2.5 -23.5t1.5 -28.5q4 -16 10.5 -28.5t12.5 -20.5q7 -11 14 -18l-56 -50q-14 13 -25 30q-10 14 -19.5 34t-13.5 44q-6 22 -5.5 42.5t4.5 36.5q4 18 11 36 zM160 128q7 -6 18 -11q9 -5 21.5 -9t29.5 -6t30.5 -0.5t24.5 3.5q12 3 22 7l37 -69q-13 -7 -32 -12q-15 -5 -36 -8t-46 -1q-22 4 -43.5 12.5t-38.5 16.5q-20 10 -39 21zM339 121q9 5 18 13q8 7 17 17.5t17 25.5q10 14 14.5 27.5t6.5 24.5q2 13 0 25l72 6q1 -21 -2 -43 q-2 -19 -9 -42t-21 -43q-11 -17 -24 -30t-25 -22q-14 -11 -28 -18z" />
</svg>