<?xml version="1.0" encoding="UTF-8"?>
<svg width="100" height="100" viewBox="0 0 122 150" version="1.1"
    xmlns="http://www.w3.org/2000/svg">
    <path fill="#ff0000" transform="scale(0.29, -0.29) translate(-50, -508)"
        d="M490 233q0 -48 -18.5 -90.5t-50 -74t-75.5 -50t-93 -18.5t-92 18.5t-75.5 50t-51 74t-18.5 90.5q0 49 18.5 92.5t51 75.5t75.5 50.5t92 18.5t93 -18.5t75.5 -50.5t50 -75.5t18.5 -92.5zM433 233q0 37 -14 70t-38 57t-57 38t-71 14t-70.5 -14t-56.5 -38t-37.5 -57 t-13.5 -70q0 -36 13.5 -68t37.5 -56t56.5 -38t70.5 -14t71 14t57 38t38 56t14 68z" />
</svg>