<?xml version="1.0" encoding="UTF-8" standalone="no"?>
<svg
   width="21"
   height="20.99999"
   version="1.1"
   id="svg1"
   xmlns="http://www.w3.org/2000/svg"
   xmlns:svg="http://www.w3.org/2000/svg">
  <defs
     id="defs1" />
  <path
     d="m 0.5,10.499996 a 10,10 0 1 0 20,0 10,10 0 1 0 -20,0"
     fill="none"
     stroke="#000000"
     stroke-width="1"
     id="path1" />
  <path
     style="font-weight:bold;font-size:10.5208px;font-family:Arial;-inkscape-font-specification:'Arial Bold';stroke-width:3.31366"
     d="M 7.1146449,14.265496 V 6.7344942 h 3.2004191 q 1.207221,0 1.751754,0.2054843 0.549671,0.2003473 0.878446,0.7191953 0.328775,0.5188481 0.328775,1.1866723 0,0.847623 -0.4983,1.4024309 -0.498299,0.549671 -1.489761,0.69351 0.493162,0.287678 0.811663,0.631864 0.323638,0.344186 0.868171,1.222632 l 0.919543,1.469213 H 12.066818 L 10.967477,12.626758 Q 10.381846,11.748313 10.166088,11.52228 9.9503292,11.29111 9.7088851,11.208916 9.4674409,11.121585 8.9434558,11.121585 H 8.6352292 v 3.143911 z M 8.6352292,9.9195019 h 1.125027 q 1.0942038,0 1.3664708,-0.092468 0.272267,-0.092468 0.42638,-0.3185008 0.154114,-0.2260328 0.154114,-0.565082 0,-0.3801461 -0.205485,-0.611316 Q 11.301389,8.0958281 10.931517,8.0341828 10.746581,8.0084973 9.8219015,8.0084973 H 8.6352292 Z"
     id="text1"
     aria-label="R" />
</svg>
