<?xml version="1.0" encoding="UTF-8" standalone="no"?>
<svg
    width="21"
    height="20.99999"
    version="1.1"
    id="svg1"
    xmlns="http://www.w3.org/2000/svg"
    xmlns:svg="http://www.w3.org/2000/svg">
    <defs
        id="defs1" />
    <path
        d="m 0.5,10.499996 a 10,10 0 1 0 20,0 10,10 0 1 0 -20,0"
        fill="none"
        stroke="#000000"
        stroke-width="1"
        id="path1" />
    <path
        style="font-weight:bold;font-size:10.5208px;font-family:Arial;-inkscape-font-specification:'Arial Bold';stroke-width:3.31366"
        d="m 7.3458151,6.7344942 h 3.0103459 q 0.893857,0 1.330511,0.077057 0.441792,0.071919 0.785978,0.3082266 0.349324,0.236307 0.580493,0.6318644 0.23117,0.3904203 0.23117,0.8784457 0,0.5291222 -0.287678,0.9709136 -0.282541,0.4417909 -0.770566,0.6626869 0.688372,0.200347 1.058244,0.683236 0.369872,0.482888 0.369872,1.135301 0,0.513711 -0.241444,1.001736 -0.236307,0.482888 -0.652413,0.775704 -0.410969,0.287678 -1.017147,0.35446 -0.380147,0.0411 -1.8339484,0.05137 H 7.3458151 Z m 1.5205843,1.2534546 v 1.74148 h 0.9965992 q 0.8887194,0 1.1044784,-0.025686 0.39042,-0.046234 0.611316,-0.2671297 0.226033,-0.2260328 0.226033,-0.5907675 0,-0.3493235 -0.19521,-0.5650821 Q 11.419543,8.0598683 11.039397,8.0136344 10.813364,7.9879488 9.739708,7.9879488 Z m 0,2.9949342 v 2.013747 h 1.4075676 q 0.821938,0 1.042834,-0.04623 0.339049,-0.06165 0.54967,-0.297952 0.215759,-0.241444 0.215759,-0.642139 0,-0.339049 -0.164388,-0.575356 -0.164387,-0.236307 -0.477751,-0.344186 -0.308226,-0.10788 -1.345922,-0.10788 z"
        id="text1"
        aria-label="B" />
</svg>