<?xml version="1.0" encoding="UTF-8"?>
<svg width="100" height="100" viewBox="0 0 122 150" version="1.1"
    xmlns="http://www.w3.org/2000/svg">
    <path transform="scale(0.25, -0.25) translate(0, -575)"
        d="M79 533q21 26 45.5 35.5t47.5 -3.5q22 -16 25 -45.5t-15 -61.5q-17 -32 -41 -38t-50 2q-12 9 -18.5 22.5t-8.5 29.5t2 31.5t13 27.5zM72 392h46l29 -208l129 88v-88l113 81v-266h-349zM77 33h275v163l-117 -76l5 76l-112 -76l-32 212zM102 520q-13 -15 -15 -28t1 -23 t8.5 -16.5t7.5 -7.5q1 -1 6.5 -2t13.5 0.5t17.5 7t20.5 18.5q10 18 13.5 28t2.5 16.5t-5 12t-10 13.5q-1 1 -6 3.5t-13 2.5t-18.5 -5t-23.5 -20z" />
</svg>