<?xml version="1.0" encoding="UTF-8" standalone="no"?>
<svg version="1.1" width="18" height="18" xmlns="http://www.w3.org/2000/svg" xmlns:svg="http://www.w3.org/2000/svg">
   <path d="M 3.1526364,0.19981498 Q 2.9195189,-0.0333025 2.6864014,0.00555041 2.4532839,0.04440333 2.2978723,0.19981498 2.1424606,0.35522664 2.1036077,0.58834411 2.0647548,0.82146161 2.2978723,1.0545791 L 5.8334875,4.5901944 Q 6.0666055,4.8233117 6.2997228,4.784459 6.5328404,4.745606 6.6882521,4.5901944 6.8436637,4.4347828 6.8825167,4.2016651 6.9213693,3.9685478 6.6882521,3.7354302 Z M 5.7169289,4.1628121 V 13.914894 H 6.8825167 V 4.1628121 Z M 6.6882521,14.26457 Q 6.9213693,14.031453 6.8825167,13.798335 6.8436637,13.565217 6.6882521,13.409806 6.5328404,13.254394 6.2997228,13.215541 6.0666055,13.176688 5.8334875,13.409806 l -3.5356152,3.535615 q -0.2331175,0.233117 -0.1942646,0.466235 0.038853,0.233117 0.1942646,0.388529 0.1554116,0.155412 0.3885291,0.194265 0.2331175,0.03885 0.466235,-0.194265 z" />
   <path d="m 14.847363,0.19981509 q 0.233118,-0.23311748 0.466236,-0.19426457 0.233117,0.03885292 0.388529,0.19426457 0.155411,0.15541166 0.194264,0.38852913 0.03885,0.2331175 -0.194264,0.46623498 L 12.166512,4.5901944 Q 11.933395,4.8233117 11.700278,4.784459 11.46716,4.745606 11.311748,4.5901944 11.156337,4.4347828 11.117484,4.2016651 11.078631,3.9685478 11.311748,3.7354302 Z M 12.283071,4.1628121 V 13.914894 H 11.117484 V 4.1628121 Z M 11.311748,14.26457 q -0.233117,-0.233117 -0.194264,-0.466235 0.03885,-0.233118 0.194264,-0.388529 0.155412,-0.155412 0.38853,-0.194265 0.233117,-0.03885 0.466234,0.194265 l 3.535616,3.535615 q 0.233117,0.233117 0.194264,0.466235 -0.03885,0.233117 -0.194264,0.388529 -0.155412,0.155412 -0.388529,0.194265 -0.233118,0.03885 -0.466236,-0.194265 z" />
</svg>
