<?xml version="1.0" encoding="UTF-8" standalone="no"?>
<svg version="1.1" width="16" height="16" xmlns="http://www.w3.org/2000/svg"
    xmlns:svg="http://www.w3.org/2000/svg">
    <path
        d="m 8.4,10.52 q 0,0.4 -0.36,0.4 -0.36,0 -0.36,-0.4 V 5.48 q 0,-0.4 0.36,-0.4 0.36,0 0.36,0.4 z M 8,5.08 q 0.08,0 0.12,0.92 0.04,0.92 0,2 -0.04,1.08 -0.08,2 L 8,10.92 0.4,8.28 Q 0,8.2 0,7.96 0,7.72 0.4,7.64 L 7.92,5.08 Z M 15.36,7.4 Q 16,7.4 16,7.96 16,8.52 15.36,8.52 H 8.24 Q 7.6,8.52 7.6,7.96 7.6,7.4 8.24,7.4 Z M 16,7.96 H 0 Z" />
</svg>