<?xml version="1.0" encoding="UTF-8" standalone="no"?>
<svg width="25" height="25" version="1.1" xmlns="http://www.w3.org/2000/svg" xmlns:svg="http://www.w3.org/2000/svg">
   <path d="m 14.545789,24.81731 q 1.298813,-0.299727 2.073106,-1.148951 0.774291,-0.849222 1.173925,-1.698446 0.499543,-1.049042 0.649408,-2.247945 1.148949,0.149863 2.247943,-0.09991 0.949133,-0.249771 1.923242,-0.949131 0.97411,-0.699361 1.573561,-2.197991 0.79927,-1.898265 0.424612,-3.396894 -0.374657,-1.49863 -1.123972,-2.547671 Q 22.588437,9.2815142 21.23967,8.3823365 21.439486,7.2333868 21.339579,6.0844374 21.23967,5.0853509 20.914967,4.0113327 20.590264,2.9373148 19.691084,2.0381369 18.791907,1.1389591 17.917707,0.68937016 17.043505,0.23978122 16.194282,0.08991824 15.345059,-0.05994474 14.545789,0.03996391 13.74652,0.13987256 13.097114,0.3896442 11.448621,0.93914179 10.0499,2.3378629 9.1007674,1.588548 8.0017725,1.288822 7.0026858,1.0390504 5.7288506,1.2138905 4.4550152,1.3887307 2.906431,2.5876346 1.207984,3.886447 0.80834937,5.4849854 0.40871474,7.0835238 0.60853206,8.5321995 0.80834937,10.180692 1.6076185,11.929093 q -0.74931483,1.198904 -1.0989951,2.497716 -0.29972596,1.098996 -0.22479448,2.422785 0.0749315,1.323791 1.07401798,2.622603 1.0989952,1.448674 2.2479448,1.923241 1.1489495,0.474566 2.0980817,0.52452 1.0989951,0.04995 2.1480361,-0.399634 0.5994519,1.198904 1.5485839,2.048126 0.8492236,0.699362 2.0980826,1.173927 1.248858,0.474568 3.047213,0.07493 z M 14.0962,23.668359 Q 12.497662,24.01804 11.398667,23.518497 10.299672,23.018953 9.6003109,22.269638 8.8010417,21.370461 8.3514527,20.121603 7.4023205,20.621146 6.4032341,20.771009 5.5540104,20.870918 4.5049694,20.546215 3.4559287,20.221512 2.4068877,18.972653 1.4078013,17.873658 1.3578469,16.649777 1.3078926,15.425896 1.7075272,14.376855 2.1071617,13.127997 3.0063398,11.979048 2.1571161,10.380509 1.9073444,8.8319252 1.6575729,7.5331128 2.0322302,6.0344831 2.4068877,4.5358532 4.0553807,3.3369495 5.2542844,2.4377715 6.3532796,2.3878172 q 1.0989951,-0.049954 1.9482188,0.1998174 0.9990865,0.299726 1.8982646,0.9990864 1.298813,-1.3487668 2.747488,-1.9482188 1.248858,-0.5494975 2.797442,-0.4246117 1.548584,0.1248858 3.197078,1.7733786 0.799269,0.7493149 1.04904,1.7733786 0.249772,1.0240637 0.249772,1.9731959 0,1.0989952 -0.249772,2.2479446 1.49863,0.6494064 2.272921,1.6734698 0.774293,1.024064 1.07402,2.02315 0.299725,0.999086 0.224794,1.84831 -0.07493,0.849224 -0.224794,1.198904 -0.649408,1.448676 -1.573563,2.098082 -0.924154,0.649406 -1.823333,0.799269 -1.04904,0.199818 -2.19799,-0.04995 -0.149862,1.198903 -0.599452,2.247945 -0.399634,0.899177 -1.123972,1.723424 -0.724338,0.824246 -1.923242,1.123971 z m 0.549498,-11.339631 q 0,-1.098995 -0.699361,-1.873287 -0.69936,-0.7742921 -1.698446,-0.8242464 -0.999087,0 -1.748402,0.7493144 -0.7493151,0.749315 -0.7493151,1.84831 0,1.098995 0.7243381,1.873287 0.724338,0.774292 1.723424,0.774292 0.999087,0.04996 1.723424,-0.724337 0.724338,-0.774292 0.724338,-1.823333 z" />
</svg>
