<?xml version="1.0" encoding="UTF-8" standalone="no"?>
<svg
    width="25"
    height="25"
    version="1.1"
    viewBox="0 0 25 24.999999"
    id="svg4"
    sodipodi:docname="juridisk-punkt-1271.svg"
    inkscape:version="1.1.1 (3bf5ae0d25, 2021-09-20)"
    xmlns:inkscape="http://www.inkscape.org/namespaces/inkscape"
    xmlns:sodipodi="http://sodipodi.sourceforge.net/DTD/sodipodi-0.dtd"
    xmlns="http://www.w3.org/2000/svg"
    xmlns:svg="http://www.w3.org/2000/svg">
    <defs
        id="defs8" />
    <sodipodi:namedview
        id="namedview6"
        pagecolor="#ffffff"
        bordercolor="#666666"
        borderopacity="1.0"
        inkscape:pageshadow="2"
        inkscape:pageopacity="0.0"
        inkscape:pagecheckerboard="0"
        showgrid="false"
        showguides="false"
        inkscape:zoom="8.9526468"
        inkscape:cx="49.985218"
        inkscape:cy="48.756531"
        inkscape:window-width="3840"
        inkscape:window-height="1137"
        inkscape:window-x="-8"
        inkscape:window-y="-8"
        inkscape:window-maximized="1"
        inkscape:current-layer="svg4" />
    <path
        d="m 8.908046,24.083071 q 0.4702195,0.104493 0.9404388,0.313479 0.4179732,0.104494 0.8098222,0.15674 0.39185,0.05225 0.705329,0.05225 0.417973,0.104493 0.757576,0.07837 0.339603,-0.02612 1.018809,-0.02612 0.470219,-0.05225 0.940439,-0.156739 l -0.15674,-0.679206 -1.880878,0.208986 q -0.888192,-0.1045 -1.253918,-0.208993 -0.365726,-0.104494 -0.757576,-0.23511 -0.3918495,-0.130616 -0.6530825,-0.261233 l -0.261233,-0.130617 z m -1.9331243,-0.835946 0.4179728,0.208986 0.261233,-0.574712 -0.4179728,-0.208987 z m 10.5015673,0.31348 q 0.417973,-0.15674 0.783699,-0.31348 0.31348,-0.15674 0.653083,-0.31348 0.339602,-0.156739 0.548589,-0.365726 0.313479,-0.208986 0.522466,-0.339603 0.208986,-0.130616 0.783699,-0.600836 0.470219,-0.470219 0.835946,-0.783699 l -0.47022,-0.470219 q -0.365726,0.417973 -0.731452,0.731452 -0.31348,0.261233 -0.653083,0.54859 -0.339603,0.287356 -0.548589,0.391849 -0.208987,0.05225 -0.287356,0.104493 l -0.23511,0.15674 q 0,0 -0.444096,0.287356 -0.444096,0.287357 -0.914316,0.39185 z m -1.933124,0.679205 0.574712,-0.208986 -0.208986,-0.626959 -0.47022,0.15674 z m 8.254963,-6.374085 q 0.15674,-0.417973 0.31348,-0.783699 0.104493,-0.31348 0.235109,-0.679206 0.130617,-0.365726 0.23511,-0.679206 0.05225,-0.417973 0.104493,-0.470219 0.05225,-0.05225 0.208987,-1.201672 0,-0.47022 0.05225,-0.888193 h -0.783698 q -0.05225,0.574713 -0.05225,1.044933 -0.104494,0.365726 -0.130617,0.705329 -0.02612,0.339603 -0.182863,0.548589 0,0.208987 -0.130616,0.548589 -0.130617,0.339603 -0.23511,0.679206 -0.104493,0.339603 -0.208987,0.574713 -0.104493,0.23511 0,0.287356 z m -1.044932,1.828631 0.31348,-0.574712 -0.574713,-0.365727 -0.261233,0.365727 z M 24.84326,10.080981 24.582027,9.2972817 Q 24.477534,8.7748155 24.346918,8.4874592 24.216301,8.200103 24.111808,7.8866232 23.798328,7.259664 23.380355,6.475965 23.066876,5.953499 22.70115,5.5355262 l -0.522466,0.4702193 q 0.313479,0.417973 0.574712,0.7836992 0.15674,0.365726 0.39185,0.6792058 0.235109,0.3134795 0.235109,0.522466 0.261233,0.3657262 0.365727,0.7053292 0.104493,0.3396028 0.365726,1.5412753 z M 20.454545,3.0276892 Q 20.036572,2.7142095 19.723093,2.5052231 19.357367,2.24399 19.096134,2.0611269 18.834901,1.8782638 18.469174,1.721524 18.103448,1.5125376 17.816092,1.4080444 L 16.954023,1.0945648 Q 16.53605,0.93782497 15.961338,0.83333177 L 15.856844,1.460291 q 0.522466,0.1567398 0.940439,0.3657262 0.31348,0.1044932 0.522466,0.1567398 0.208987,0.052247 0.783699,0.4179729 0.31348,0.052247 0.417973,0.1306165 0.104493,0.07837 0.261233,0.1828631 0.15674,0.1044932 0.470219,0.2873562 0.31348,0.1828633 0.783699,0.5485895 z m 1.410659,1.306165 -0.31348,-0.3134795 -0.470219,0.365726 0.313479,0.3657262 z M 11.938349,0.31086572 q -0.365726,0.0522466 -0.731452,0.0522466 -0.365727,0.0522466 -0.600836,0.0783699 -0.23511,0.0261233 -0.8098227,0.13061653 -0.4179728,0.1044932 -0.862069,0.2089864 Q 8.4900733,0.88557837 8.124347,1.0945648 7.706374,1.199058 7.1316615,1.4080444 L 7.3928945,2.0350036 8.3333333,1.6170308 Q 9.169279,1.5125376 9.8484848,1.3035512 q 0.1567402,-0.052247 0.2612332,-0.07837 0.104493,-0.026123 0.31348,-0.026123 0.208986,0 0.574712,-0.1044932 0.365726,-0.10449323 0.992686,-0.15673983 z m 2.351097,0.1567398 -0.470219,-0.1044932 V 0.93782497 L 14.2372,0.99007157 Z M 4.0491117,3.5501552 3.5266458,4.0203747 Q 3.108673,4.3861007 2.9258098,4.6212105 2.7429467,4.8563202 2.4817138,5.1698 2.2727273,5.431033 1.9592476,5.8490057 1.645768,6.2669785 1.4890282,6.6065815 1.3322884,6.9461845 1.0710554,7.3119107 l 0.7314524,0.261233 Q 2.0637409,7.2074175 2.2727273,6.8416912 2.429467,6.5282115 2.5339603,6.3714717 L 2.951933,5.7445125 Q 3.1609195,5.431033 3.2131663,5.3265397 3.2654128,5.2220465 3.4221525,5.0653067 3.5788923,4.908567 3.8401255,4.6734572 4.1013585,4.4383475 4.6238245,4.0203747 Z M 5.7732497,2.1917435 5.4075235,2.5052231 5.7732497,2.9754425 6.138976,2.661963 Z M 0.1306165,10.5512 q -0.0522466,0.365727 -0.1044932,0.7837 -0.0522466,0.679205 0,1.567398 0.0522466,0.679206 0.15673982,1.515151 0.1044932,0.47022 0.261233,1.044932 L 1.123302,15.305641 Q 1.0188088,14.783175 0.96656218,14.312956 0.86206897,13.894983 0.83594568,13.503134 0.80982235,13.111284 0.80982235,12.902298 V 10.70794 Z M 0.80982235,8.3045962 0.54858935,8.8793087 1.0188088,9.0882952 1.3322884,8.6180757 Z M 1.8547545,18.753917 q 0.3134796,0.417973 0.4702194,0.783699 0.3134796,0.208987 0.5224661,0.522466 0.2089863,0.31348 0.4702193,0.522466 0.261233,0.31348 0.6530827,0.653083 0.3918495,0.339603 0.7575758,0.653082 0.4179727,0.31348 0.8359455,0.574713 L 5.877743,21.836467 Q 5.4075235,21.366248 5.0417972,21.105015 4.3103448,20.582548 3.9968652,20.269069 L 3.709509,19.981713 q 0,0 -0.2089865,-0.23511 Q 3.291536,19.511493 3.1347963,19.302506 2.9780565,19.09352 2.4817138,18.388191 Z M 0.96656218,16.873039 1.123302,17.291012 1.6980146,17.134272 1.4890282,16.664053 Z M 14.602926,19.746603 q -1.201672,0.261233 -2.011494,-0.02612 -0.809823,-0.287356 -1.332289,-0.705329 -0.574712,-0.522466 -0.992685,-1.201672 -0.6792062,0.208987 -1.4106587,0.208987 -0.626959,-0.05225 -1.384535,-0.31348 Q 6.7136885,17.447752 5.9822363,16.55956 5.355277,15.828108 5.3030303,15.044408 5.2507838,14.260709 5.45977,13.581504 5.6687565,12.797804 6.1912225,12.066352 5.6687565,11.073667 5.5120167,10.080981 5.4075235,9.1927885 5.6687565,8.2262262 5.9299895,7.259664 7.0271682,6.5282115 8.0198537,5.7967592 8.8557993,5.692266 9.691745,5.5877727 10.318704,5.7445125 11.050157,5.953499 11.677116,6.3714717 12.617555,5.5877727 13.662487,5.2220465 14.550679,4.908567 15.673981,5.01306 q 1.123302,0.1044932 2.272727,1.1494255 0.574713,0.5747125 0.809823,1.227795 0.235109,0.6530827 0.287356,1.2277952 0.05225,0.679206 -0.05225,1.3584118 0.888192,0.5224665 1.462905,1.2539185 0.470219,0.62696 0.705328,1.515152 0.23511,0.888192 -0.287356,2.037617 -0.417972,0.888193 -1.044932,1.306166 -0.626959,0.417972 -1.201672,0.574712 -0.679205,0.208987 -1.462904,0.104493 -0.104494,0.731453 -0.417973,1.306165 -0.261233,0.522467 -0.783699,0.992686 -0.522466,0.470219 -1.358412,0.679206 z m -0.261233,-0.626959 q 0.731452,-0.208987 1.201672,-0.679207 0.470219,-0.470219 0.731452,-1.044931 0.261233,-0.62696 0.417973,-1.358412 0.731453,0.15674 1.410658,0.05225 0.574713,-0.104494 1.201672,-0.47022 0.626959,-0.365726 1.044932,-1.253918 0.05225,-0.208987 0.104494,-0.731453 0.05225,-0.522466 -0.130617,-1.123302 -0.182863,-0.600836 -0.679206,-1.201672 -0.496343,-0.600836 -1.489028,-0.966562 0.208986,-0.7314528 0.208986,-1.358412 0,-0.5747128 -0.182863,-1.201672 Q 17.998955,7.1551707 17.476489,6.737198 16.431557,5.7445124 15.386625,5.692266 14.341693,5.6400192 13.557994,5.9534989 12.617555,6.3192252 11.781609,7.1029242 11.15465,6.737198 10.527691,6.5282115 9.952978,6.3714717 9.247649,6.397595 8.5423198,6.4237184 7.8108673,6.998431 6.7136885,7.7298834 6.478579,8.5919525 6.2434693,9.4540215 6.3479625,10.237721 q 0.1567398,0.940439 0.7314523,1.880878 -0.5747125,0.731452 -0.8359455,1.462904 -0.261233,0.62696 -0.2351098,1.332289 0.026123,0.705329 0.6530825,1.384535 0.6792058,0.731452 1.384535,0.940439 0.7053293,0.208986 1.2800418,0.104493 0.6269592,-0.104493 1.2539182,-0.417973 0.31348,0.731452 0.835946,1.306165 0.417973,0.470219 1.149425,0.783699 0.731453,0.31348 1.776385,0.104494 z m 0.31348,-6.792059 q 0,0.626959 -0.47022,1.071055 -0.47022,0.444097 -1.097179,0.39185 -0.679205,0 -1.149425,-0.444096 -0.470219,-0.444096 -0.470219,-1.071056 0,-0.626959 0.470219,-1.097178 0.47022,-0.47022 1.149425,-0.47022 0.679206,0 1.123302,0.496343 0.444097,0.496343 0.444097,1.123302 z M 25,11.909612 v -0.522466 l -0.574713,0.05225 v 0.470219 z"
        id="path2"
        style="stroke-width:0.25" />
</svg>