<?xml version="1.0" encoding="UTF-8" standalone="no"?>
<svg version="1.1" width="26" height="26" xmlns="http://www.w3.org/2000/svg" xmlns:svg="http://www.w3.org/2000/svg">
   <path d="m 13,13.462435 h 4.470197 v 0.976249 q 0,0.154146 0.05138,0.359671 0.102764,0.154145 0.256909,0.154145 l 7.553092,-1.541447 q 0.308292,-0.05138 0.51382,-0.154145 Q 25.999541,13.102763 25.999541,13 q 0,-0.102762 -0.154143,-0.256908 -0.154147,-0.102763 -0.462437,-0.154143 L 17.881248,11.0475 h -0.205526 q -0.205525,0.05138 -0.205525,0.30829 v 1.130394 H 13 Z m 0,-0.976251 H 8.786709 V 11.35579 q 0,-0.30829 -0.2569077,-0.30829 H 8.3242748 L 0.925327,12.588949 Q 0.61703748,12.640329 0.41151115,12.743092 0.25736641,12.897238 0.25736641,13 q 0,0.102763 0.15414474,0.256908 0.10276318,0.05138 0.25690792,0.102763 0.20552633,0.102764 3.95638193,0.847796 3.7508555,0.745033 3.8536189,0.745033 0.2055259,0 0.2569076,-0.205526 0.051381,-0.205526 0.051381,-0.30829 V 13.462435 H 13 Z M 4.585e-4,13 H 25.948157 Z" />
</svg>
